<svg xmlns="http://www.w3.org/2000/svg" xmlns:xlink="http://www.w3.org/1999/xlink" version="1.1" x="0px" y="0px" viewBox="0 0 96 96" enable-background="new 0 0 96 96" xml:space="preserve"><g><path fill="none" stroke="#000000" stroke-width="2" stroke-linecap="round" stroke-linejoin="round" stroke-miterlimit="10" d="   M55.941,44.393c2.178,3.841,1.852,8.552-1.115,11.519c-1.495,1.494-3.43,2.316-5.478,2.488c0.672,3.968-0.437,8.066-3.365,10.994   c-4.99,4.99-13.372,4.693-18.724-0.658c-5.347-5.348-5.644-13.729-0.653-18.719c2.928-2.928,7.035-4.038,10.994-3.365   c0.172-2.047,0.994-3.982,2.488-5.478c3.007-3.007,7.805-3.301,11.671-1.028"></path><circle fill="none" stroke="#000000" stroke-width="2" stroke-linecap="round" stroke-linejoin="round" stroke-miterlimit="10" cx="43.594" cy="52.406" r="4.144"></circle><line fill="none" stroke="#000000" stroke-width="2" stroke-linecap="round" stroke-linejoin="round" stroke-miterlimit="10" x1="31.703" y1="57.522" x2="38.478" y2="64.298"></line><line fill="none" stroke="#000000" stroke-width="2" stroke-linecap="round" stroke-linejoin="round" stroke-miterlimit="10" x1="33.284" y1="60.589" x2="35.413" y2="62.718"></line><path fill="none" stroke="#000000" stroke-width="2" stroke-linecap="round" stroke-linejoin="round" stroke-miterlimit="10" d="   M47.817,52.575L65.9,33.563c0.399-0.399,0.399-1.045,0.001-1.443l-2.021-2.021c-0.398-0.397-1.044-0.396-1.444,0.002L43.542,48.067   "></path><path fill="none" stroke="#000000" stroke-width="2" stroke-linecap="round" stroke-linejoin="round" stroke-miterlimit="10" d="   M64.648,28.081c0.262,0.262,0.262,0.688,0,0.95l-0.926,0.91l2.329,2.329l0.919-0.918c0.262-0.263,0.687-0.263,0.949,0l0.426,0.426   l4.409-4.35c0.262-0.263,0.262-0.688,0-0.95l-3.232-3.232c-0.262-0.263-0.688-0.263-0.95,0l-4.379,4.38L64.648,28.081z"></path></g></svg>